# xmcd
#
# Track frame offsets:
#	150
#	24970
#	43752
#	64900
#	83667
#	100592
#	120785
#	137752
#	161440
#	180772
#
# Disc length: 2656 seconds
#
# Revision: 1
# Processed by: cddbd v1.5.2PL0 Copyright (c) Steve Scherf et al.
# Submitted via: EasyCDDAExtractor 11.0.2.1
#
DISCID=690a5e0a
DTITLE=Lissette - Asuntos De Mujer
DYEAR=1989
DGENRE=Latin
TTITLE0=Panico Organizado
TTITLE1=Sera Que Ya No Puedo Olvidarte
TTITLE2=Tan Sola
TTITLE3=Clasificados
TTITLE4=Mañana No
TTITLE5=Tiempo Al Tiempo
TTITLE6=Mujer
TTITLE7=Amantes Por Atraccion
TTITLE8=Sueños De Rock
TTITLE9=No Te Quiero Mas
EXTD=YEAR: 1989 ID3G: 17
EXTT0=
EXTT1=
EXTT2=
EXTT3=
EXTT4=
EXTT5=
EXTT6=
EXTT7=
EXTT8=
EXTT9=
PLAYORDER=
